# xmcd
#
# Track frame offsets:
#	150
#	15537
#	27180
#	36939
#	48000
#	59787
#	69936
#	80001
#	91454
#	103503
#	116904
#	127353
#	138681
#	153733
#	170143
#	180803
#	190936
#	203947
#	215363
#	224305
#	231608
#	241731
#	254142
#	265970
#	277394
#
# Disc length: 3827 seconds
#
# Revision: 0
# Processed by: cddbd v1.5.2PL0 Copyright (c) Steve Scherf et al.
# Submitted via: audiograbber 1.83.01
#
DISCID=8c0ef119
DTITLE=Various Artist - Seaside Special 1 CD2
DYEAR=2013
DGENRE=Oldies
TTITLE0=Max Bygraves - You're A Pink Toothbrush
TTITLE1=Susan Maughan - Bobby's Girl
TTITLE2=The Allisons - Lessons In Love
TTITLE3=Ruby Murray - Softly Softly
TTITLE4=Ken Dodd - Once In Every Lifetime
TTITLE5=Harry Secombe - Bless This House
TTITLE6=Winifred Atwell - Let's Have A Party
TTITLE7=Karl Denver - Wimoweh
TTITLE8=Ronnie Carroll - Roses Are Red
TTITLE9=Cliff Richard - The Next Time
TTITLE10=Bernard Cribbins - Right Said Fred
TTITLE11=Helen Shapiro - Walkin' Back To Happiness
TTITLE12=Frankie Howerd - I'm The Man Who's Deputising For The Bull
TTITLE13=Acker Bilk - Summer Set
TTITLE14=Kenny Ball and His Jazzmen - Samantha
TTITLE15=Lita Roza - How Much Is That Doggie In The Window?
TTITLE16=The Shadows - Apache
TTITLE17=The Kaye Sisters - Alone
TTITLE18=Lonnie Donegan - Cumberland Gap
TTITLE19=Adam Faith - What Do You Want?
TTITLE20=Petula Clark - Ya Ya Twist
TTITLE21=Norman Vaughan - Swingin' In The Rain
TTITLE22=Kenny Lynch - Up On The Roof
TTITLE23=Joy Nichols, Dick Bentley and Jimmy Edwards - Little Red Monkey
TTITLE24=Eric Sykes and Hattie Jacques - Cockles And Mussels
EXTD=All tracks Mono
EXTT0=
EXTT1=
EXTT2=
EXTT3=
EXTT4=
EXTT5=
EXTT6=
EXTT7=
EXTT8=
EXTT9=
EXTT10=
EXTT11=
EXTT12=
EXTT13=
EXTT14=
EXTT15=
EXTT16=
EXTT17=
EXTT18=
EXTT19=
EXTT20=
EXTT21=
EXTT22=
EXTT23=
EXTT24=
PLAYORDER=
